<?xml version="1.0" encoding="utf-8"?>
<!-- Generator: Adobe Illustrator 19.0.0, SVG Export Plug-In . SVG Version: 6.00 Build 0)  -->
<svg version="1.1" id="Layer_1" xmlns="http://www.w3.org/2000/svg" xmlns:xlink="http://www.w3.org/1999/xlink" x="0px" y="0px"
	 viewBox="0 0 566.9 566.9" enable-background="new 0 0 566.9 566.9" xml:space="preserve">
<g id="XMLID_2_">
	<g id="XMLID_1_">
		<path id="XMLID_49_" fill="#FFB600" d="M437.7,161.6h89.1c0.9-5,1.3-10.2,1.3-15.4c0-5.3-0.5-10.4-1.3-15.4h-89.1V99.3H515
			c-15.9-26.1-44.6-43.6-77.4-43.6c-49.9,0-90.5,40.6-90.5,90.4c0,49.9,40.6,90.5,90.5,90.5c32.7,0,61.5-17.5,77.3-43.6h-77.4V161.6
			z"/>
		<path id="XMLID_48_" fill="#FFB600" d="M124.3,130.7V99.3h77.4c-15.9-26.1-44.6-43.6-77.4-43.6c-49.9,0-90.5,40.6-90.5,90.4
			c0,49.9,40.6,90.5,90.5,90.5c32.7,0,61.5-17.5,77.3-43.6h-77.4v-31.4h89.1c0.9-5,1.3-10.2,1.3-15.4c0-5.3-0.5-10.4-1.3-15.4H124.3
			z"/>
		<g id="XMLID_44_" opacity="0.6">
			<path id="XMLID_47_" opacity="0.25" d="M180.7,99.3h21c-15.9-26.1-44.6-43.6-77.4-43.6c-3.5,0-7,0.2-10.5,0.6
				C142.2,59.6,166.5,76,180.7,99.3z"/>
			<path id="XMLID_46_" opacity="0.25" d="M192.4,161.6h21c0.9-5,1.3-10.2,1.3-15.4c0-5.3-0.5-10.4-1.3-15.4h-21
				c0.9,5,1.3,10.2,1.3,15.4C193.8,151.4,193.3,156.6,192.4,161.6z"/>
			<path id="XMLID_45_" opacity="0.25" d="M113.9,236c3.4,0.4,6.9,0.6,10.5,0.6c32.7,0,61.5-17.5,77.3-43.6h-21
				C166.5,216.3,142.2,232.7,113.9,236z"/>
		</g>
		<g id="XMLID_40_" opacity="0.6">
			<path id="XMLID_43_" opacity="0.25" d="M494,99.3h21c-15.9-26.1-44.6-43.6-77.4-43.6c-3.5,0-7,0.2-10.5,0.6
				C455.5,59.6,479.9,76,494,99.3z"/>
			<path id="XMLID_42_" opacity="0.25" d="M505.8,161.6h21c0.9-5,1.3-10.2,1.3-15.4c0-5.3-0.5-10.4-1.3-15.4h-21
				c0.9,5,1.3,10.2,1.3,15.4C507.1,151.4,506.6,156.6,505.8,161.6z"/>
			<path id="XMLID_41_" opacity="0.25" d="M427.2,236c3.4,0.4,6.9,0.6,10.5,0.6c32.7,0,61.5-17.5,77.3-43.6h-21
				C479.9,216.3,455.5,232.7,427.2,236z"/>
		</g>
		<path id="XMLID_36_" fill="#2B2B2B" d="M437.7,24.3c-67.2,0-121.9,54.7-121.9,121.9c0,5.9,0.4,11.8,1.3,17.5l0,0L281.6,202
			L245,163.6l0,0c0.8-5.7,1.3-11.5,1.3-17.4c0-67.2-54.7-121.9-121.9-121.9C71.2,24.3,25.9,58.5,9.3,106
			c-4.4,12.6-6.8,26.1-6.8,40.1c0,14.1,2.4,27.6,6.8,40.1c10.3,29.5,31.7,53.8,59.1,68.1c16.8,8.7,35.8,13.7,56,13.7
			c20.2,0,39.2-5,56-13.7c22.9-11.9,41.6-30.9,53.1-54.1l48.1,49.1l48.2-49.1c11.6,22,29.8,42.6,51.9,54.1
			c16.8,8.7,35.8,13.7,56,13.7c20.2,0,39.2-5,56-13.7c39.1-20.3,65.9-61.2,65.9-108.2C559.5,79,504.9,24.3,437.7,24.3z M213.4,161.6
			h-89.1V193h77.4c-15.9,26.1-44.6,43.6-77.3,43.6c-49.9,0-90.5-40.6-90.5-90.5c0-49.9,40.6-90.4,90.5-90.4
			c32.7,0,61.5,17.5,77.4,43.6h-77.4v31.4h89.1c0.9,5,1.3,10.2,1.3,15.4C214.8,151.4,214.3,156.6,213.4,161.6z M437.7,161.6V193H515
			c-15.9,26.1-44.6,43.6-77.3,43.6c-49.9,0-90.5-40.6-90.5-90.5c0-49.9,40.6-90.4,90.5-90.4c32.7,0,61.5,17.5,77.4,43.6h-77.4v31.4
			h89.1c0.9,5,1.3,10.2,1.3,15.4c0,5.3-0.5,10.4-1.3,15.4H437.7z"/>
	</g>
	<path id="XMLID_17_" fill="#FF2E2E" d="M441.5,435.3h89.9c0.9-5.1,1.4-10.3,1.4-15.6c0-5.3-0.5-10.5-1.4-15.6h-89.9v-31.7h78
		c-16-26.4-45-44-78-44c-50.3,0-91.3,40.9-91.3,91.2c0,50.3,40.9,91.3,91.3,91.3c33,0,62-17.6,78-44h-78V435.3z"/>
	<path id="XMLID_18_" fill="#FF2E2E" d="M125.4,404.1v-31.7h78c-16-26.4-45-44-78-44c-50.3,0-91.3,40.9-91.3,91.2
		c0,50.3,40.9,91.3,91.3,91.3c33,0,62-17.6,78-44h-78v-31.7h89.9c0.9-5.1,1.4-10.3,1.4-15.6c0-5.3-0.5-10.5-1.4-15.6H125.4z"/>
	<g id="XMLID_3_" opacity="0.6">
		<path id="XMLID_6_" opacity="0.25" d="M182.3,372.4h21.2c-16-26.4-45-44-78-44c-3.6,0-7.1,0.2-10.6,0.6
			C143.4,332.4,168,349,182.3,372.4z"/>
		<path id="XMLID_8_" opacity="0.25" d="M194.1,435.3h21.2c0.9-5.1,1.4-10.3,1.4-15.6c0-5.3-0.5-10.5-1.4-15.6h-21.2
			c0.9,5.1,1.4,10.3,1.4,15.6C195.5,425,195,430.2,194.1,435.3z"/>
		<path id="XMLID_10_" opacity="0.25" d="M114.9,510.3c3.5,0.4,7,0.6,10.6,0.6c33,0,62-17.6,78-44h-21.2
			C168,490.4,143.4,507,114.9,510.3z"/>
	</g>
	<g id="XMLID_5_" opacity="0.6">
		<path id="XMLID_20_" opacity="0.25" d="M498.4,372.4h21.2c-16-26.4-45-44-78-44c-3.6,0-7.1,0.2-10.6,0.6
			C459.5,332.4,484.1,349,498.4,372.4z"/>
		<path id="XMLID_9_" opacity="0.25" d="M510.2,435.3h21.2c0.9-5.1,1.4-10.3,1.4-15.6c0-5.3-0.5-10.5-1.4-15.6h-21.2
			c0.9,5.1,1.4,10.3,1.4,15.6C511.6,425,511.1,430.2,510.2,435.3z"/>
		<path id="XMLID_7_" opacity="0.25" d="M431,510.3c3.5,0.4,7,0.6,10.6,0.6c33,0,62-17.6,78-44h-21.2
			C484.1,490.4,459.5,507,431,510.3z"/>
	</g>
	<path id="XMLID_30_" fill="#2B2B2B" d="M441.5,296.7c-67.8,0-123,55.2-123,122.9c0,6,0.5,11.9,1.3,17.6l0,0L284,476l-36.9-38.8l0,0
		c0.8-5.8,1.3-11.6,1.3-17.6c0-67.8-55.2-122.9-122.9-122.9c-53.6,0-99.3,34.5-116.1,82.4c-4.4,12.7-6.9,26.3-6.9,40.5
		c0,14.2,2.4,27.8,6.9,40.5c10.4,29.7,31.9,54.3,59.6,68.7c16.9,8.8,36.1,13.8,56.5,13.8c20.4,0,39.6-5,56.5-13.8
		c23.1-12,42-31.2,53.6-54.5l48.5,49.5l48.6-49.5c11.7,22.2,30,42.9,52.3,54.5c16.9,8.8,36.2,13.8,56.5,13.8
		c20.4,0,39.6-5,56.5-13.8c39.4-20.5,66.4-61.7,66.4-109.2C564.5,351.9,509.3,296.7,441.5,296.7z M215.3,435.3h-89.9V467h78
		c-16,26.4-45,44-78,44c-50.3,0-91.3-40.9-91.3-91.3c0-50.3,40.9-91.2,91.3-91.2c33,0,62,17.6,78,44h-78v31.7h89.9
		c0.9,5.1,1.4,10.3,1.4,15.6C216.7,425,216.2,430.2,215.3,435.3z M441.5,435.3V467h78c-16,26.4-45,44-78,44
		c-50.3,0-91.3-40.9-91.3-91.3c0-50.3,40.9-91.2,91.3-91.2c33,0,62,17.6,78,44h-78v31.7h89.9c0.9,5.1,1.4,10.3,1.4,15.6
		c0,5.3-0.5,10.5-1.4,15.6H441.5z"/>
</g>
</svg>
